<svg width="184" height="184" viewBox="0 0 184 184" fill="none" xmlns="http://www.w3.org/2000/svg">
<path d="M92 0.851562C67.8254 0.851562 44.6406 10.4539 27.5469 27.5484C10.4531 44.643 0.850006 67.8258 0.850006 92.0016C0.850006 116.177 10.4523 139.361 27.5469 156.455C44.6414 173.549 67.8242 183.153 92 183.153C116.176 183.153 139.359 173.549 156.453 156.455C173.548 139.362 183.152 116.177 183.152 92.0016C183.124 67.8348 173.511 44.6656 156.423 27.5797C139.336 10.4914 116.169 0.879687 92.0008 0.852343L92 0.851562ZM92 179.006C68.9242 179.006 46.793 169.84 30.4766 153.523C14.1602 137.206 4.99297 115.075 4.99297 91.9993C4.99297 68.9235 14.1606 46.7922 30.4766 30.4758C46.7926 14.1594 68.9242 4.99223 92 4.99223C115.074 4.99223 137.207 14.1598 153.523 30.4758C169.841 46.7922 179.007 68.9235 179.007 91.9993C179.007 115.073 169.841 137.206 153.523 153.523C137.207 169.84 115.076 179.006 92 179.006Z" fill="#F59E0B"/>
<ellipse cx="92.5" cy="92" rx="87.5" ry="91" fill="#F59E0B"/>
<path d="M72.5821 80H113.417C114.291 80 115 79.3282 115 78.5006C115 77.6718 114.291 77 113.417 77H72.5821C71.7088 77 71 77.6718 71 78.5006C71 79.3282 71.7088 80 72.5821 80Z" fill="#2589D3" stroke="#2589D3" stroke-width="2"/>
<path d="M72.5821 89H113.417C114.291 89 115 88.3282 115 87.4994C115 86.6718 114.291 86 113.417 86H72.5821C71.7088 86 71 86.6718 71 87.4994C71 88.3282 71.7088 89 72.5821 89Z" fill="#2589D3" stroke="#2589D3" stroke-width="2"/>
<path d="M72.5821 98H113.417C114.291 98 115 97.1046 115 96C115 94.8954 114.291 94 113.417 94H72.5821C71.7088 94 71 94.8954 71 96C71 97.1046 71.7088 98 72.5821 98Z" fill="#2589D3" stroke="#2589D3" stroke-width="2"/>
<path d="M72.5821 106H113.417C114.291 106 115 105.328 115 104.499C115 103.671 114.291 103 113.417 103H72.5821C71.7088 103 71 103.671 71 104.499C71 105.328 71.7088 106 72.5821 106Z" fill="#2589D3" stroke="#2589D3" stroke-width="2"/>
<path d="M113.417 115C114.291 115 115 114.328 115 113.5C115 112.672 114.291 112 113.417 112H72.5821C71.7088 112 71 112.672 71 113.5C71 114.328 71.7088 115 72.5821 115H113.417Z" fill="#2589D3" stroke="#2589D3" stroke-width="2"/>
<path fill-rule="evenodd" clip-rule="evenodd" d="M124 135V68.2452V68.1176C123.934 66.6297 123.315 65.2178 122.26 64.1607L103.669 45.7233C102.634 44.6942 101.252 44.0819 99.7912 44.007C99.7324 43.9977 99.6737 43.9977 99.6161 44.007H66.5479C65.3431 44.0117 64.1888 44.4894 63.3365 45.3381C62.4843 46.1868 62.0047 47.3365 62 48.5365V130.486C62.0047 131.685 62.4855 132.832 63.3377 133.678C64.1899 134.525 65.3454 135 66.5479 135H124ZM120.187 66.6559L119.995 66.4171L101.418 47.9647L101.211 47.8055V63.8579C101.211 64.6025 101.51 65.3166 102.04 65.8411C102.57 66.3667 103.288 66.6594 104.036 66.6547L120.187 66.6559ZM65.1915 48.4891V130.483L65.1901 130.485C65.1995 131.225 65.8036 131.819 66.5466 131.819H120.807V82.3902V69.441C119.213 69.4445 100.423 70.2082 99.7814 68.0888C98.6529 66.9686 98.0182 65.4455 98.0182 63.858V47.1381H66.5479C65.7992 47.1381 65.1915 47.7422 65.1915 48.4891Z" fill="#2563EB"/>
<path d="M124 135V68.2452V68.1176C123.934 66.6297 123.315 65.2178 122.26 64.1607L103.669 45.7233C102.634 44.6942 101.252 44.0819 99.7912 44.007C99.7324 43.9977 99.6737 43.9977 99.6161 44.007H66.5479C65.3431 44.0117 64.1888 44.4894 63.3365 45.3381C62.4843 46.1868 62.0047 47.3365 62 48.5365V130.486C62.0047 131.685 62.4855 132.832 63.3377 133.678C64.1899 134.525 65.3454 135 66.5479 135H124ZM124 135L123.999 119.201M119.995 66.4171L120.187 66.6559L104.036 66.6547C103.288 66.6594 102.57 66.3667 102.04 65.8411C101.51 65.3166 101.211 64.6025 101.211 63.8579V47.8055L101.418 47.9647L119.995 66.4171ZM65.1915 130.483V48.4891C65.1915 47.7422 65.7992 47.1381 66.5479 47.1381H98.0182V63.858C98.0182 65.4455 98.6529 66.9686 99.7814 68.0888C100.423 70.2082 119.213 69.4445 120.807 69.441V82.3902V131.819H66.5466C65.8036 131.819 65.1995 131.225 65.1901 130.485L65.1915 130.483Z" stroke="#2563EB" stroke-width="2"/>
</svg>
