<svg width="66" height="95" viewBox="0 0 66 95" fill="none" xmlns="http://www.w3.org/2000/svg">
<path d="M12.5821 47H53.4168C54.2912 47 55 46.1046 55 45C55 43.8954 54.2912 43 53.4168 43H12.5821C11.7088 43 11 43.8954 11 45C11 46.1046 11.7088 47 12.5821 47Z" fill="white" stroke="white" stroke-width="5"/>
<path d="M12.5821 60H53.4168C54.2912 60 55 59.3282 55 58.4995C55 57.6707 54.2912 57 53.4168 57H12.5821C11.7088 57 11 57.6707 11 58.4995C11 59.3282 11.7088 60 12.5821 60Z" fill="white" stroke="white" stroke-width="5"/>
<path d="M53.4168 73C54.2912 73 55 72.3284 55 71.5C55 70.6716 54.2912 70 53.4168 70H12.5821C11.7088 70 11 70.6716 11 71.5C11 72.3284 11.7088 73 12.5821 73H53.4168Z" fill="white" stroke="white" stroke-width="5"/>
<path fill-rule="evenodd" clip-rule="evenodd" d="M64 93V26.2452V26.1176C63.9342 24.6297 63.3147 23.2178 62.2603 22.1607L43.6692 3.72328C42.6336 2.69423 41.2524 2.08195 39.7912 2.00702C39.7324 1.99766 39.6737 1.99766 39.6161 2.00702H6.54793C5.34307 2.01171 4.18878 2.48936 3.33651 3.3381C2.4843 4.18685 2.00469 5.33649 2 6.53648V88.4859C2.0047 89.6847 2.48548 90.832 3.33768 91.6783C4.18989 92.5247 5.34539 93 6.5479 93H64ZM59.6035 27.4675C60.2012 27.4522 60.6211 27.4414 60.807 27.441V40.3902V89.8194H6.54656C5.80365 89.8194 5.20084 89.2234 5.19146 88.4835V6.48912C5.19146 5.74221 5.79916 5.13814 6.54794 5.13814H38.0182V21.858C38.0182 23.4455 38.6529 24.9686 39.7814 26.0888C40.348 27.9608 55.0743 27.5835 59.6035 27.4675ZM59.9951 24.4171L60.1867 24.6559L44.0357 24.6547C43.2881 24.6594 42.5699 24.3667 42.0397 23.8411C41.5096 23.3166 41.211 22.6025 41.211 21.8579V5.8055L41.4179 5.96472L59.9951 24.4171Z" fill="white"/>
<path d="M59.6035 27.4675C59.6403 27.4665 59.6764 27.4656 59.7118 27.4647C59.6758 27.4656 59.639 27.4666 59.6015 27.4675M59.6035 27.4675C60.2012 27.4522 60.6211 27.4414 60.807 27.441V40.3902V89.8194H6.54656C5.80365 89.8194 5.20084 89.2234 5.19146 88.4835V6.48912C5.19146 5.74221 5.79916 5.13814 6.54794 5.13814H38.0182V21.858C38.0182 23.4455 38.6529 24.9686 39.7814 26.0888C40.348 27.9608 55.0743 27.5835 59.6035 27.4675ZM64 93V26.2452V26.1176C63.9342 24.6297 63.3147 23.2178 62.2603 22.1607L43.6692 3.72328C42.6336 2.69423 41.2524 2.08195 39.7912 2.00702C39.7324 1.99766 39.6737 1.99766 39.6161 2.00702H6.54793C5.34307 2.01171 4.18878 2.48936 3.33651 3.3381C2.4843 4.18685 2.00469 5.33649 2 6.53648V88.4859C2.0047 89.6847 2.48548 90.832 3.33768 91.6783C4.18989 92.5247 5.34539 93 6.5479 93H64ZM64 93L63.9993 77.2014M59.9951 24.4171L60.1867 24.6559L44.0357 24.6547C43.2881 24.6594 42.5699 24.3667 42.0397 23.8411C41.5096 23.3166 41.211 22.6025 41.211 21.8579V5.8055L41.4179 5.96472L59.9951 24.4171Z" stroke="white" stroke-width="4"/>
</svg>
